REM DIRINDEX 1\2,1\3,1\4,1\5\6,1\5\7,1\8
REM DIRNAME cjc115,folder01,folder02,folder03,folder04,folder05,folder06,folder07
TITLE ""
FILE "007 Åy007ÅzUnit1 (0073 challenge_0084 structure).mp3" MP3
  TRACK 01 AUDIO
    TITLE "0:"
    INDEX 01 00:00:00
  TRACK 02 AUDIO
    TITLE "2:cjc115_0218"
    INDEX 01 00:00:07
  TRACK 03 AUDIO
    TITLE "0:"
    INDEX 01 00:01:26
  TRACK 04 AUDIO
    TITLE "3:cjc115_0219"
    INDEX 01 00:01:32
  TRACK 05 AUDIO
    TITLE "0:"
    INDEX 01 00:03:31
  TRACK 06 AUDIO
    TITLE "4:cjc115_0220"
    INDEX 01 00:03:37
  TRACK 07 AUDIO
    TITLE "0:"
    INDEX 01 00:08:56
  TRACK 08 AUDIO
    TITLE "2:cjc115_0221"
    INDEX 01 00:09:65
  TRACK 09 AUDIO
    TITLE "0:"
    INDEX 01 00:11:13
  TRACK 10 AUDIO
    TITLE "3:cjc115_0222"
    INDEX 01 00:11:21
  TRACK 11 AUDIO
    TITLE "0:"
    INDEX 01 00:13:59
  TRACK 12 AUDIO
    TITLE "4:cjc115_0223"
    INDEX 01 00:13:65
  TRACK 13 AUDIO
    TITLE "0:"
    INDEX 01 00:18:13
  TRACK 14 AUDIO
    TITLE "2:cjc115_0224"
    INDEX 01 00:19:15
  TRACK 15 AUDIO
    TITLE "0:"
    INDEX 01 00:20:30
  TRACK 16 AUDIO
    TITLE "3:cjc115_0225"
    INDEX 01 00:20:32
  TRACK 17 AUDIO
    TITLE "0:"
    INDEX 01 00:22:36
  TRACK 18 AUDIO
    TITLE "4:cjc115_0226"
    INDEX 01 00:22:42
  TRACK 19 AUDIO
    TITLE "0:"
    INDEX 01 00:27:30
  TRACK 20 AUDIO
    TITLE "2:cjc115_0227"
    INDEX 01 00:28:39
  TRACK 21 AUDIO
    TITLE "0:"
    INDEX 01 00:29:68
  TRACK 22 AUDIO
    TITLE "3:cjc115_0228"
    INDEX 01 00:30:01
  TRACK 23 AUDIO
    TITLE "0:"
    INDEX 01 00:31:39
  TRACK 24 AUDIO
    TITLE "4:cjc115_0229"
    INDEX 01 00:31:49
  TRACK 25 AUDIO
    TITLE "0:"
    INDEX 01 00:34:67
  TRACK 26 AUDIO
    TITLE "2:cjc115_0230"
    INDEX 01 00:36:01
  TRACK 27 AUDIO
    TITLE "0:"
    INDEX 01 00:37:24
  TRACK 28 AUDIO
    TITLE "3:cjc115_0231"
    INDEX 01 00:37:30
  TRACK 29 AUDIO
    TITLE "0:"
    INDEX 01 00:39:37
  TRACK 30 AUDIO
    TITLE "4:cjc115_0232"
    INDEX 01 00:39:45
  TRACK 31 AUDIO
    TITLE "0:"
    INDEX 01 00:43:58
  TRACK 32 AUDIO
    TITLE "2:cjc115_0233"
    INDEX 01 00:44:67
  TRACK 33 AUDIO
    TITLE "0:"
    INDEX 01 00:46:19
  TRACK 34 AUDIO
    TITLE "3:cjc115_0234"
    INDEX 01 00:46:27
  TRACK 35 AUDIO
    TITLE "0:"
    INDEX 01 00:48:28
  TRACK 36 AUDIO
    TITLE "4:cjc115_0235"
    INDEX 01 00:48:38
  TRACK 37 AUDIO
    TITLE "0:"
    INDEX 01 00:51:63
  TRACK 38 AUDIO
    TITLE "2:cjc115_0236"
    INDEX 01 00:52:73
  TRACK 39 AUDIO
    TITLE "0:"
    INDEX 01 00:54:19
  TRACK 40 AUDIO
    TITLE "3:cjc115_0237"
    INDEX 01 00:54:25
  TRACK 41 AUDIO
    TITLE "0:"
    INDEX 01 00:56:18
  TRACK 42 AUDIO
    TITLE "4:cjc115_0238"
    INDEX 01 00:56:25
  TRACK 43 AUDIO
    TITLE "0:"
    INDEX 01 01:00:15
  TRACK 44 AUDIO
    TITLE "2:cjc115_0239"
    INDEX 01 01:01:23
  TRACK 45 AUDIO
    TITLE "0:"
    INDEX 01 01:02:42
  TRACK 46 AUDIO
    TITLE "3:cjc115_0240"
    INDEX 01 01:02:50
  TRACK 47 AUDIO
    TITLE "0:"
    INDEX 01 01:03:69
  TRACK 48 AUDIO
    TITLE "4:cjc115_0241"
    INDEX 01 01:04:05
  TRACK 49 AUDIO
    TITLE "0:"
    INDEX 01 01:07:15
  TRACK 50 AUDIO
    TITLE "2:cjc115_0242"
    INDEX 01 01:08:25
  TRACK 51 AUDIO
    TITLE "0:"
    INDEX 01 01:09:44
  TRACK 52 AUDIO
    TITLE "3:cjc115_0243"
    INDEX 01 01:09:48
  TRACK 53 AUDIO
    TITLE "0:"
    INDEX 01 01:10:69
  TRACK 54 AUDIO
    TITLE "4:cjc115_0244"
    INDEX 01 01:11:03
  TRACK 55 AUDIO
    TITLE "0:"
    INDEX 01 01:15:29
  TRACK 56 AUDIO
    TITLE "2:cjc115_0245"
    INDEX 01 01:16:38
  TRACK 57 AUDIO
    TITLE "0:"
    INDEX 01 01:17:51
  TRACK 58 AUDIO
    TITLE "3:cjc115_0246"
    INDEX 01 01:17:57
  TRACK 59 AUDIO
    TITLE "0:"
    INDEX 01 01:20:57
  TRACK 60 AUDIO
    TITLE "4:cjc115_0247"
    INDEX 01 01:20:63
  TRACK 61 AUDIO
    TITLE "0:"
    INDEX 01 01:25:27
  TRACK 62 AUDIO
    TITLE "2:cjc115_0248"
    INDEX 01 01:26:36
  TRACK 63 AUDIO
    TITLE "0:"
    INDEX 01 01:27:50
  TRACK 64 AUDIO
    TITLE "3:cjc115_0249"
    INDEX 01 01:27:59
  TRACK 65 AUDIO
    TITLE "0:"
    INDEX 01 01:29:66
  TRACK 66 AUDIO
    TITLE "4:cjc115_0250"
    INDEX 01 01:29:72
  TRACK 67 AUDIO
    TITLE "0:"
    INDEX 01 01:32:62
  TRACK 68 AUDIO
    TITLE "2:cjc115_0251"
    INDEX 01 01:33:72
  TRACK 69 AUDIO
    TITLE "0:"
    INDEX 01 01:35:14
  TRACK 70 AUDIO
    TITLE "3:cjc115_0252"
    INDEX 01 01:35:24
  TRACK 71 AUDIO
    TITLE "0:"
    INDEX 01 01:38:08
  TRACK 72 AUDIO
    TITLE "4:cjc115_0253"
    INDEX 01 01:38:16
  TRACK 73 AUDIO
    TITLE "0:"
    INDEX 01 01:43:21
